# xmcd
#
# Track frame offsets: 
#        150
#        15629
#        35892
#        55257
#        62981
#        82338
#        105340
#        123587
#        141227
#        154577
#        176077
#
# Disc length: 2652 seconds
#
# Revision: 0
# Processed by: cddbd v1.5.2PL0 Copyright (c) Steve Scherf et al.
# Submitted via: ExactAudioCopy v0.99pb5
#
DISCID=9c0a5a0b
DTITLE=Martin Harley - Martin Harley
DYEAR=1900
DGENRE=Blues
TTITLE0=Summer Shadows
TTITLE1=One Life To Live
TTITLE2=Chocoloate Jesus
TTITLE3=Del Mundo
TTITLE4=Nobody's Fool
TTITLE5=Steady Rolling
TTITLE6=Small Voice
TTITLE7=Some Fires
TTITLE8=Drown Our Sorrows
TTITLE9=I Shall Be Released
TTITLE10=Chocolcate Jesus (Full Band Version)
EXTD=
EXTT0=
EXTT1=
EXTT2=
EXTT3=
EXTT4=
EXTT5=
EXTT6=
EXTT7=
EXTT8=
EXTT9=
EXTT10=
PLAYORDER=
